TITLE ""
FILE "LR_black_phrase_E_S05.mp3" MP3
  TRACK 01 AUDIO
    TITLE "LR_black_phrase_E_S05_001"
    INDEX 01 00:00:00
  TRACK 02 AUDIO
    TITLE "LR_black_phrase_E_S05_002"
    INDEX 01 00:00:14
  TRACK 03 AUDIO
    TITLE "LR_black_phrase_E_S05_003"
    INDEX 01 00:01:33
  TRACK 04 AUDIO
    TITLE "LR_black_phrase_E_S05_004"
    INDEX 01 00:01:63
  TRACK 05 AUDIO
    TITLE "LR_black_phrase_E_S05_005"
    INDEX 01 00:03:42
  TRACK 06 AUDIO
    TITLE "LR_black_phrase_E_S05_006"
    INDEX 01 00:04:22
  TRACK 07 AUDIO
    TITLE "LR_black_phrase_E_S05_007"
    INDEX 01 00:06:03
  TRACK 08 AUDIO
    TITLE "LR_black_phrase_E_S05_008"
    INDEX 01 00:07:04
  TRACK 09 AUDIO
    TITLE "LR_black_phrase_E_S05_009"
    INDEX 01 00:08:10
  TRACK 10 AUDIO
    TITLE "LR_black_phrase_E_S05_010"
    INDEX 01 00:08:41
  TRACK 11 AUDIO
    TITLE "LR_black_phrase_E_S05_011"
    INDEX 01 00:11:02
  TRACK 12 AUDIO
    TITLE "LR_black_phrase_E_S05_012"
    INDEX 01 00:11:57
  TRACK 13 AUDIO
    TITLE "LR_black_phrase_E_S05_013"
    INDEX 01 00:14:18
  TRACK 14 AUDIO
    TITLE "LR_black_phrase_E_S05_014"
    INDEX 01 00:15:20
  TRACK 15 AUDIO
    TITLE "LR_black_phrase_E_S05_015"
    INDEX 01 00:16:50
  TRACK 16 AUDIO
    TITLE "LR_black_phrase_E_S05_016"
    INDEX 01 00:16:72
  TRACK 17 AUDIO
    TITLE "LR_black_phrase_E_S05_017"
    INDEX 01 00:18:71
  TRACK 18 AUDIO
    TITLE "LR_black_phrase_E_S05_018"
    INDEX 01 00:19:39
  TRACK 19 AUDIO
    TITLE "LR_black_phrase_E_S05_019"
    INDEX 01 00:21:40
  TRACK 20 AUDIO
    TITLE "LR_black_phrase_E_S05_020"
    INDEX 01 00:22:33
  TRACK 21 AUDIO
    TITLE "LR_black_phrase_E_S05_021"
    INDEX 01 00:23:52
  TRACK 22 AUDIO
    TITLE "LR_black_phrase_E_S05_022"
    INDEX 01 00:23:74
  TRACK 23 AUDIO
    TITLE "LR_black_phrase_E_S05_023"
    INDEX 01 00:26:18
  TRACK 24 AUDIO
    TITLE "LR_black_phrase_E_S05_024"
    INDEX 01 00:26:63
  TRACK 25 AUDIO
    TITLE "LR_black_phrase_E_S05_025"
    INDEX 01 00:29:06
  TRACK 26 AUDIO
    TITLE "LR_black_phrase_E_S05_026"
    INDEX 01 00:30:06
  TRACK 27 AUDIO
    TITLE "LR_black_phrase_E_S05_027"
    INDEX 01 00:31:17
  TRACK 28 AUDIO
    TITLE "LR_black_phrase_E_S05_028"
    INDEX 01 00:31:48
  TRACK 29 AUDIO
    TITLE "LR_black_phrase_E_S05_029"
    INDEX 01 00:33:61
  TRACK 30 AUDIO
    TITLE "LR_black_phrase_E_S05_030"
    INDEX 01 00:34:43
  TRACK 31 AUDIO
    TITLE "LR_black_phrase_E_S05_031"
    INDEX 01 00:36:55
  TRACK 32 AUDIO
    TITLE "LR_black_phrase_E_S05_032"
    INDEX 01 00:37:57
  TRACK 33 AUDIO
    TITLE "LR_black_phrase_E_S05_033"
    INDEX 01 00:39:01
  TRACK 34 AUDIO
    TITLE "LR_black_phrase_E_S05_034"
    INDEX 01 00:39:30
  TRACK 35 AUDIO
    TITLE "LR_black_phrase_E_S05_035"
    INDEX 01 00:41:37
  TRACK 36 AUDIO
    TITLE "LR_black_phrase_E_S05_036"
    INDEX 01 00:42:19
  TRACK 37 AUDIO
    TITLE "LR_black_phrase_E_S05_037"
    INDEX 01 00:44:23
  TRACK 38 AUDIO
    TITLE "LR_black_phrase_E_S05_038"
    INDEX 01 00:45:25
  TRACK 39 AUDIO
    TITLE "LR_black_phrase_E_S05_039"
    INDEX 01 00:46:44
  TRACK 40 AUDIO
    TITLE "LR_black_phrase_E_S05_040"
    INDEX 01 00:46:67
  TRACK 41 AUDIO
    TITLE "LR_black_phrase_E_S05_041"
    INDEX 01 00:49:09
  TRACK 42 AUDIO
    TITLE "LR_black_phrase_E_S05_042"
    INDEX 01 00:49:56
  TRACK 43 AUDIO
    TITLE "LR_black_phrase_E_S05_043"
    INDEX 01 00:51:70
  TRACK 44 AUDIO
    TITLE "LR_black_phrase_E_S05_044"
    INDEX 01 00:52:68
  TRACK 45 AUDIO
    TITLE "LR_black_phrase_E_S05_045"
    INDEX 01 00:54:06
  TRACK 46 AUDIO
    TITLE "LR_black_phrase_E_S05_046"
    INDEX 01 00:54:28
  TRACK 47 AUDIO
    TITLE "LR_black_phrase_E_S05_047"
    INDEX 01 00:56:03
  TRACK 48 AUDIO
    TITLE "LR_black_phrase_E_S05_048"
    INDEX 01 00:56:48
  TRACK 49 AUDIO
    TITLE "LR_black_phrase_E_S05_049"
    INDEX 01 00:58:23
  TRACK 50 AUDIO
    TITLE "LR_black_phrase_E_S05_050"
    INDEX 01 00:59:23
  TRACK 51 AUDIO
    TITLE "LR_black_phrase_E_S05_051"
    INDEX 01 01:00:26
  TRACK 52 AUDIO
    TITLE "LR_black_phrase_E_S05_052"
    INDEX 01 01:00:56
  TRACK 53 AUDIO
    TITLE "LR_black_phrase_E_S05_053"
    INDEX 01 01:02:47
  TRACK 54 AUDIO
    TITLE "LR_black_phrase_E_S05_054"
    INDEX 01 01:03:25
  TRACK 55 AUDIO
    TITLE "LR_black_phrase_E_S05_055"
    INDEX 01 01:05:18
  TRACK 56 AUDIO
    TITLE "LR_black_phrase_E_S05_056"
    INDEX 01 01:06:19
  TRACK 57 AUDIO
    TITLE "LR_black_phrase_E_S05_057"
    INDEX 01 01:07:36
  TRACK 58 AUDIO
    TITLE "LR_black_phrase_E_S05_058"
    INDEX 01 01:07:65
  TRACK 59 AUDIO
    TITLE "LR_black_phrase_E_S05_059"
    INDEX 01 01:09:62
  TRACK 60 AUDIO
    TITLE "LR_black_phrase_E_S05_060"
    INDEX 01 01:10:42
  TRACK 61 AUDIO
    TITLE "LR_black_phrase_E_S05_061"
    INDEX 01 01:12:41
  TRACK 62 AUDIO
    TITLE "LR_black_phrase_E_S05_062"
    INDEX 01 01:13:41
  TRACK 63 AUDIO
    TITLE "LR_black_phrase_E_S05_063"
    INDEX 01 01:14:58
  TRACK 64 AUDIO
    TITLE "LR_black_phrase_E_S05_064"
    INDEX 01 01:15:02
  TRACK 65 AUDIO
    TITLE "LR_black_phrase_E_S05_065"
    INDEX 01 01:17:54
  TRACK 66 AUDIO
    TITLE "LR_black_phrase_E_S05_066"
    INDEX 01 01:18:24
  TRACK 67 AUDIO
    TITLE "LR_black_phrase_E_S05_067"
    INDEX 01 01:21:01
  TRACK 68 AUDIO
    TITLE "LR_black_phrase_E_S05_068"
    INDEX 01 01:21:73
  TRACK 69 AUDIO
    TITLE "LR_black_phrase_E_S05_069"
    INDEX 01 01:23:23
  TRACK 70 AUDIO
    TITLE "LR_black_phrase_E_S05_070"
    INDEX 01 01:23:45
  TRACK 71 AUDIO
    TITLE "LR_black_phrase_E_S05_071"
    INDEX 01 01:25:42
  TRACK 72 AUDIO
    TITLE "LR_black_phrase_E_S05_072"
    INDEX 01 01:26:16
  TRACK 73 AUDIO
    TITLE "LR_black_phrase_E_S05_073"
    INDEX 01 01:28:13
  TRACK 74 AUDIO
    TITLE "LR_black_phrase_E_S05_074"
    INDEX 01 01:29:14
  TRACK 75 AUDIO
    TITLE "LR_black_phrase_E_S05_075"
    INDEX 01 01:30:29
  TRACK 76 AUDIO
    TITLE "LR_black_phrase_E_S05_076"
    INDEX 01 01:30:57
  TRACK 77 AUDIO
    TITLE "LR_black_phrase_E_S05_077"
    INDEX 01 01:32:56
  TRACK 78 AUDIO
    TITLE "LR_black_phrase_E_S05_078"
    INDEX 01 01:33:35
  TRACK 79 AUDIO
    TITLE "LR_black_phrase_E_S05_079"
    INDEX 01 01:35:32
  TRACK 80 AUDIO
    TITLE "LR_black_phrase_E_S05_080"
    INDEX 01 01:36:38
  TRACK 81 AUDIO
    TITLE "LR_black_phrase_E_S05_081"
    INDEX 01 01:37:49
  TRACK 82 AUDIO
    TITLE "LR_black_phrase_E_S05_082"
    INDEX 01 01:38:05
  TRACK 83 AUDIO
    TITLE "LR_black_phrase_E_S05_083"
    INDEX 01 01:40:00
  TRACK 84 AUDIO
    TITLE "LR_black_phrase_E_S05_084"
    INDEX 01 01:40:53
  TRACK 85 AUDIO
    TITLE "LR_black_phrase_E_S05_085"
    INDEX 01 01:42:50
  TRACK 86 AUDIO
    TITLE "LR_black_phrase_E_S05_086"
    INDEX 01 01:43:52
  TRACK 87 AUDIO
    TITLE "LR_black_phrase_E_S05_087"
    INDEX 01 01:44:72
  TRACK 88 AUDIO
    TITLE "LR_black_phrase_E_S05_088"
    INDEX 01 01:45:19
  TRACK 89 AUDIO
    TITLE "LR_black_phrase_E_S05_089"
    INDEX 01 01:47:43
  TRACK 90 AUDIO
    TITLE "LR_black_phrase_E_S05_090"
    INDEX 01 01:48:12
  TRACK 91 AUDIO
    TITLE "LR_black_phrase_E_S05_091"
    INDEX 01 01:50:36
  TRACK 92 AUDIO
    TITLE "LR_black_phrase_E_S05_092"
    INDEX 01 01:51:31
  TRACK 93 AUDIO
    TITLE "LR_black_phrase_E_S05_093"
    INDEX 01 01:52:56
  TRACK 94 AUDIO
    TITLE "LR_black_phrase_E_S05_094"
    INDEX 01 01:53:03
  TRACK 95 AUDIO
    TITLE "LR_black_phrase_E_S05_095"
    INDEX 01 01:55:25
  TRACK 96 AUDIO
    TITLE "LR_black_phrase_E_S05_096"
    INDEX 01 01:55:66
  TRACK 97 AUDIO
    TITLE "LR_black_phrase_E_S05_097"
    INDEX 01 01:58:14
  TRACK 98 AUDIO
    TITLE "LR_black_phrase_E_S05_098"
    INDEX 01 01:59:13
  TRACK 99 AUDIO
    TITLE "LR_black_phrase_E_S05_099"
    INDEX 01 02:00:15
  TRACK 100 AUDIO
    TITLE "LR_black_phrase_E_S05_100"
    INDEX 01 02:00:46
  TRACK 101 AUDIO
    TITLE "LR_black_phrase_E_S05_101"
    INDEX 01 02:02:25
  TRACK 102 AUDIO
    TITLE "LR_black_phrase_E_S05_102"
    INDEX 01 02:03:09
  TRACK 103 AUDIO
    TITLE "LR_black_phrase_E_S05_103"
    INDEX 01 02:04:63
  TRACK 104 AUDIO
    TITLE "LR_black_phrase_E_S05_104"
    INDEX 01 02:05:69
  TRACK 105 AUDIO
    TITLE "LR_black_phrase_E_S05_105"
    INDEX 01 02:07:07
  TRACK 106 AUDIO
    TITLE "LR_black_phrase_E_S05_106"
    INDEX 01 02:07:36
  TRACK 107 AUDIO
    TITLE "LR_black_phrase_E_S05_107"
    INDEX 01 02:09:18
  TRACK 108 AUDIO
    TITLE "LR_black_phrase_E_S05_108"
    INDEX 01 02:09:72
  TRACK 109 AUDIO
    TITLE "LR_black_phrase_E_S05_109"
    INDEX 01 02:11:54
  TRACK 110 AUDIO
    TITLE "LR_black_phrase_E_S05_110"
    INDEX 01 02:12:53
  TRACK 111 AUDIO
    TITLE "LR_black_phrase_E_S05_111"
    INDEX 01 02:13:60
  TRACK 112 AUDIO
    TITLE "LR_black_phrase_E_S05_112"
    INDEX 01 02:14:05
  TRACK 113 AUDIO
    TITLE "LR_black_phrase_E_S05_113"
    INDEX 01 02:15:69
  TRACK 114 AUDIO
    TITLE "LR_black_phrase_E_S05_114"
    INDEX 01 02:16:41
  TRACK 115 AUDIO
    TITLE "LR_black_phrase_E_S05_115"
    INDEX 01 02:18:30
  TRACK 116 AUDIO
    TITLE "LR_black_phrase_E_S05_116"
    INDEX 01 02:19:30
  TRACK 117 AUDIO
    TITLE "LR_black_phrase_E_S05_117"
    INDEX 01 02:20:53
  TRACK 118 AUDIO
    TITLE "LR_black_phrase_E_S05_118"
    INDEX 01 02:20:72
  TRACK 119 AUDIO
    TITLE "LR_black_phrase_E_S05_119"
    INDEX 01 02:22:71
  TRACK 120 AUDIO
    TITLE "LR_black_phrase_E_S05_120"
    INDEX 01 02:23:41
  TRACK 121 AUDIO
    TITLE "LR_black_phrase_E_S05_121"
    INDEX 01 02:25:40
